<?xml version="1.0" encoding="UTF-8" standalone="no"?>
<svg width="481px" height="34px" viewBox="0 0 481 34" version="1.1" xmlns="http://www.w3.org/2000/svg" xmlns:xlink="http://www.w3.org/1999/xlink">
    <!-- Generator: Sketch 43.1 (39012) - http://www.bohemiancoding.com/sketch -->
    <title>COLONY PORTAL</title>
    <desc>Created with Sketch.</desc>
    <defs></defs>
    <g id="Welcome" stroke="none" stroke-width="1" fill="none" fill-rule="evenodd">
        <g id="Colony-login" transform="translate(-480.000000, -549.000000)" fill="#AAB2BC">
            <path d="M505.844,568.416 C504.74,573.216 501.476,575.52 497.396,575.52 C492.308,575.52 488.228,571.392 488.228,565.92 C488.228,560.448 492.308,556.368 497.396,556.368 C501.524,556.368 504.788,558.624 505.796,563.28 L513.572,561.456 C512.036,553.824 505.316,549.12 497.396,549.12 C487.844,549.12 480.308,556.512 480.308,565.92 C480.308,575.376 487.844,582.72 497.396,582.72 C505.652,582.72 512.132,578.016 513.62,569.952 L505.844,568.416 Z M540.116,549.12 C549.716,549.12 557.252,556.56 557.252,565.968 C557.252,575.328 549.716,582.72 540.116,582.72 C530.516,582.72 522.98,575.328 522.98,565.968 C522.98,556.56 530.516,549.12 540.116,549.12 Z M540.116,575.472 C545.348,575.472 549.332,571.44 549.332,565.968 C549.332,560.448 545.348,556.368 540.116,556.368 C534.884,556.368 530.9,560.448 530.9,565.968 C530.9,571.44 534.884,575.472 540.116,575.472 Z M591.476,575.088 L575.636,575.088 L575.636,549.84 L567.716,549.84 L567.716,582 L591.476,582 L591.476,575.088 Z M616.964,549.12 C626.564,549.12 634.1,556.56 634.1,565.968 C634.1,575.328 626.564,582.72 616.964,582.72 C607.364,582.72 599.828,575.328 599.828,565.968 C599.828,556.56 607.364,549.12 616.964,549.12 Z M616.964,575.472 C622.196,575.472 626.18,571.44 626.18,565.968 C626.18,560.448 622.196,556.368 616.964,556.368 C611.732,556.368 607.748,560.448 607.748,565.968 C607.748,571.44 611.732,575.472 616.964,575.472 Z M675.284,549.84 L667.412,549.84 L667.412,569.04 L651.14,549.84 L644.564,549.84 L644.564,582 L652.484,582 L652.484,563.376 L668.756,582 L675.284,582 L675.284,549.84 Z M704.948,571.92 L717.668,549.84 L708.836,549.84 L701.012,563.952 L693.092,549.84 L684.452,549.84 L696.884,572.016 L696.884,582 L704.948,582 L704.948,571.92 Z M743.924,549.84 L759.764,549.84 C767.012,549.84 771.572,554.304 771.572,560.928 C771.572,567.696 766.868,572.16 759.428,572.16 L751.844,572.16 L751.844,582 L743.924,582 L743.924,549.84 Z M751.844,565.536 L758.852,565.536 C761.924,565.536 763.796,563.76 763.796,561.024 C763.796,558.432 761.924,556.608 758.852,556.608 L751.844,556.608 L751.844,565.536 Z M797.828,549.12 C807.428,549.12 814.964,556.56 814.964,565.968 C814.964,575.328 807.428,582.72 797.828,582.72 C788.228,582.72 780.692,575.328 780.692,565.968 C780.692,556.56 788.228,549.12 797.828,549.12 Z M797.828,575.472 C803.06,575.472 807.044,571.44 807.044,565.968 C807.044,560.448 803.06,556.368 797.828,556.368 C792.596,556.368 788.612,560.448 788.612,565.968 C788.612,571.44 792.596,575.472 797.828,575.472 Z M854.9,582 L845.348,582 L835.652,570.96 L833.348,570.96 L833.348,582 L825.428,582 L825.428,549.84 L841.7,549.84 C848.66,549.84 853.268,554.064 853.268,560.352 C853.268,565.632 850.004,569.424 844.82,570.576 L854.9,582 Z M833.348,564.336 L840.836,564.336 C843.668,564.336 845.492,562.8 845.492,560.448 C845.492,558.144 843.668,556.608 840.836,556.608 L833.348,556.608 L833.348,564.336 Z M889.604,556.752 L889.604,549.84 L860.9,549.84 L860.9,556.752 L871.316,556.752 L871.316,582 L879.188,582 L879.188,556.752 L889.604,556.752 Z M928.196,582 L919.748,582 L917.492,576.144 L903.956,576.144 L901.7,582 L893.204,582 L906.644,549.84 L914.756,549.84 L928.196,582 Z M914.852,569.328 L910.724,558.768 L906.644,569.328 L914.852,569.328 Z M960.74,575.088 L944.9,575.088 L944.9,549.84 L936.98,549.84 L936.98,582 L960.74,582 L960.74,575.088 Z" id="COLONY-PORTAL"></path>
        </g>
    </g>
</svg>
